<?xml version="1.0" encoding="UTF-8" standalone="no"?>
<!-- Created with Inkscape (http://www.inkscape.org/) -->

<svg
   width="256"
   height="256"
   viewBox="0 0 67.733332 67.733333"
   version="1.1"
   id="svg1"
   inkscape:version="1.3 (0e150ed6c4, 2023-07-21)"
   sodipodi:docname="cdtray_2.svg"
   inkscape:export-filename="cdtray_2.png"
   inkscape:export-xdpi="102.4"
   inkscape:export-ydpi="102.4"
   xmlns:inkscape="http://www.inkscape.org/namespaces/inkscape"
   xmlns:sodipodi="http://sodipodi.sourceforge.net/DTD/sodipodi-0.dtd"
   xmlns:xlink="http://www.w3.org/1999/xlink"
   xmlns="http://www.w3.org/2000/svg"
   xmlns:svg="http://www.w3.org/2000/svg">
  <sodipodi:namedview
     id="namedview1"
     pagecolor="#ffffff"
     bordercolor="#666666"
     borderopacity="1.0"
     inkscape:showpageshadow="2"
     inkscape:pageopacity="0.0"
     inkscape:pagecheckerboard="0"
     inkscape:deskcolor="#d1d1d1"
     inkscape:document-units="px"
     showguides="false"
     inkscape:zoom="1.5"
     inkscape:cx="140"
     inkscape:cy="128.33333"
     inkscape:window-width="1334"
     inkscape:window-height="712"
     inkscape:window-x="32"
     inkscape:window-y="32"
     inkscape:window-maximized="1"
     inkscape:current-layer="layer1"
     showgrid="false" />
  <defs
     id="defs1">
    <linearGradient
       id="linearGradient12"
       inkscape:collect="always">
      <stop
         style="stop-color:#d32f2f;stop-opacity:1"
         offset="0"
         id="stop12" />
      <stop
         style="stop-color:#388e3c;stop-opacity:1"
         offset="1"
         id="stop13" />
    </linearGradient>
    <linearGradient
       id="swatch4">
      <stop
         style="stop-color:#43a047;stop-opacity:1;"
         offset="0"
         id="stop4" />
      <stop
         style="stop-color:#43a047;stop-opacity:1;"
         offset="1"
         id="stop23" />
    </linearGradient>
    <linearGradient
       inkscape:collect="always"
       xlink:href="#linearGradient12"
       id="linearGradient13"
       x1="7.9708414"
       y1="8.8423262"
       x2="59.148396"
       y2="58.831356"
       gradientUnits="userSpaceOnUse" />
  </defs>
  <g
     inkscape:label="Capa 1"
     inkscape:groupmode="layer"
     id="layer1">
    <circle
       style="color:#000000;overflow:visible;fill:#455a64;stroke-width:3.79858;stroke-linecap:round;stroke-linejoin:round;paint-order:stroke fill markers"
       id="path1"
       cx="33.582649"
       cy="33.866665"
       r="31.75" />
    <ellipse
       style="color:#000000;overflow:visible;fill:#455a64;stroke:#ffffff;stroke-width:2.15635;stroke-linecap:round;stroke-linejoin:round;paint-order:stroke fill markers"
       id="path2"
       cx="33.866665"
       cy="33.866665"
       rx="5.2718234"
       ry="5.2718258" />
    <ellipse
       style="color:#000000;overflow:visible;fill:#ffffff;stroke:#ffffff;stroke-width:2.49688;stroke-linecap:round;stroke-linejoin:round;paint-order:stroke fill markers"
       id="path3"
       cx="33.866665"
       cy="33.866665"
       rx="1.9265616"
       ry="1.9265624" />
  </g>
  <g
     inkscape:groupmode="layer"
     id="layer2"
     inkscape:label="Circle">
    <path
       id="path4"
       style="color:#000000;overflow:visible;fill:url(#linearGradient13);stroke-width:4.20977;stroke-linecap:round;stroke-linejoin:round;paint-order:stroke fill markers"
       d="M 33.866666 8.7312499 A 25.135416 25.135416 0 0 0 16.61914 15.657959 C 20.978355 14.119525 22.809472 14.445592 22.932967 17.365348 A 19.84375 19.84375 0 0 1 33.866666 14.022916 A 19.84375 19.84375 0 0 1 53.710416 33.866666 A 19.84375 19.84375 0 0 1 52.756986 39.828576 C 48.816209 38.143221 47.638915 39.803469 47.513895 45.84888 C 47.365226 53.037834 48.960916 53.95892 55.112398 50.235693 C 60.420981 47.022635 61.173536 45.158832 57.423368 42.481127 A 25.135416 25.135416 0 0 0 59.002083 33.866666 A 25.135416 25.135416 0 0 0 33.866666 8.7312499 z M 17.767391 17.420642 C 16.593643 17.42499 14.927741 18.16797 12.620935 19.56418 C 7.5755993 22.617905 6.6451491 24.453298 9.7844156 26.926521 A 25.135416 25.135416 0 0 0 8.7312499 33.866666 A 25.135416 25.135416 0 0 0 33.866666 59.002083 A 25.135416 25.135416 0 0 0 47.387805 55.046769 C 45.117384 55.150221 44.472355 53.710418 44.934208 50.285819 A 19.84375 19.84375 0 0 1 33.866666 53.710416 A 19.84375 19.84375 0 0 1 14.022916 33.866666 A 19.84375 19.84375 0 0 1 14.526762 29.770792 C 18.828305 31.774201 20.089787 30.220832 20.219437 23.951509 C 20.312355 19.458414 19.723636 17.413395 17.767391 17.420642 z " />
  </g>
</svg>
