<?xml version="1.0" encoding="UTF-8" standalone="no"?>
<!-- Created with Inkscape (http://www.inkscape.org/) -->

<svg
   xmlns:dc="http://purl.org/dc/elements/1.1/"
   xmlns:cc="http://creativecommons.org/ns#"
   xmlns:rdf="http://www.w3.org/1999/02/22-rdf-syntax-ns#"
   xmlns:svg="http://www.w3.org/2000/svg"
   xmlns="http://www.w3.org/2000/svg"
   xmlns:sodipodi="http://sodipodi.sourceforge.net/DTD/sodipodi-0.dtd"
   xmlns:inkscape="http://www.inkscape.org/namespaces/inkscape"
   width="96"
   height="96"
   id="svg2"
   version="1.1"
   inkscape:version="0.48.3.1 r9886"
   sodipodi:docname="cdtray.svg">
  <defs
     id="defs4" />
  <sodipodi:namedview
     id="base"
     pagecolor="#ffffff"
     bordercolor="#666666"
     borderopacity="1.0"
     inkscape:pageopacity="0.0"
     inkscape:pageshadow="2"
     inkscape:zoom="1"
     inkscape:cx="7.49225"
     inkscape:cy="73.07783"
     inkscape:document-units="px"
     inkscape:current-layer="layer1"
     showgrid="false"
     fit-margin-top="0"
     fit-margin-left="0"
     fit-margin-right="0"
     fit-margin-bottom="0"
     showguides="true"
     inkscape:guide-bbox="true"
     inkscape:window-width="1410"
     inkscape:window-height="847"
     inkscape:window-x="30"
     inkscape:window-y="32"
     inkscape:window-maximized="1" />
  <metadata
     id="metadata7">
    <rdf:RDF>
      <cc:Work
         rdf:about="">
        <dc:format>image/svg+xml</dc:format>
        <dc:type
           rdf:resource="http://purl.org/dc/dcmitype/StillImage" />
        <dc:title></dc:title>
      </cc:Work>
    </rdf:RDF>
  </metadata>
  <g
     inkscape:label="Capa 1"
     inkscape:groupmode="layer"
     id="layer1"
     transform="translate(-323.42856,-375.79077)">
    <g
       id="g4332">
      <rect
         y="375.79077"
         x="323.67664"
         height="96"
         width="95.503876"
         id="rect3802"
         style="fill:#808080;fill-opacity:1;fill-rule:nonzero;stroke:none" />
      <path
         id="path3793"
         d="m 371.42856,381.79077 c -23.19596,0 -42,18.80404 -42,42 0,23.19596 18.80404,42 42,42 23.19596,0 42,-18.80404 42,-42 0,-23.19596 -18.80404,-42 -42,-42 z m 0,33 c 4.97056,0 9,4.02944 9,9 0,4.97056 -4.02944,9 -9,9 -4.97056,0 -9,-4.02944 -9,-9 0,-4.97056 4.02944,-9 9,-9 z"
         style="fill:#ffffff;stroke:none"
         inkscape:connector-curvature="0" />
      <path
         inkscape:connector-curvature="0"
         id="path3809"
         d="m 371.42856,386.79077 c -20.43454,0 -37,16.56547 -37,37 0,20.43453 16.56546,37 37,37 20.43454,0 37,-16.56547 37,-37 0,-20.43453 -16.56546,-37 -37,-37 z m 0,28 c 4.97056,0 9,4.02944 9,9 0,4.97056 -4.02944,9 -9,9 -4.97056,0 -9,-4.02944 -9,-9 0,-4.97056 4.02944,-9 9,-9 z"
         style="fill:#808080;stroke:none" />
      <path
         id="path3813"
         d="m 371.42856,414.79077 c -4.97056,0 -9,4.02944 -9,9 0,4.97056 4.02944,9 9,9 4.97056,0 9,-4.02944 9,-9 0,-4.97056 -4.02944,-9 -9,-9 z m 0,5 c 2.20914,0 4,1.79086 4,4 0,2.20914 -1.79086,4 -4,4 -2.20914,0 -4,-1.79086 -4,-4 0,-2.20914 1.79086,-4 4,-4 z"
         style="opacity:0.5;fill:#ffffff;stroke:none"
         inkscape:connector-curvature="0" />
      <path
         id="path3781"
         d="m 371.42856,393.79077 c -16.56854,0 -30,13.43146 -30,30 0,16.56854 13.43146,30 30,30 16.56854,0 30,-13.43146 30,-30 0,-16.56854 -13.43146,-30 -30,-30 z m -8.90625,5.96875 8.4375,0 -2.40625,3.15625 -6.03125,0 c -0.50401,10e-6 -0.97426,0.0435 -1.40625,0.1875 -0.43201,0.14401 -0.81301,0.36101 -1.125,0.625 -0.31201,0.25201 -0.53875,0.54626 -0.71875,0.90625 -0.18001,0.36001 -0.28125,0.75551 -0.28125,1.1875 0,0.43201 0.082,0.8275 0.25,1.1875 0.18,0.348 0.43799,0.65425 0.75,0.90625 0.32399,0.252 0.69299,0.44975 1.125,0.59375 0.43199,0.132 0.90224,0.21875 1.40625,0.21875 l 8.4375,0 -2.40625,3.09375 -6.03125,0 c -1.04401,0 -2.01826,-0.15675 -2.90625,-0.46875 -0.888,-0.312 -1.6645,-0.74125 -2.3125,-1.28125 -0.636,-0.552 -1.128,-1.1935 -1.5,-1.9375 -0.36,-0.756 -0.53125,-1.59274 -0.53125,-2.46875 0,-0.87599 0.17125,-1.65499 0.53125,-2.375 0.372,-0.73199 0.864,-1.35899 1.5,-1.875 0.648,-0.52799 1.4245,-0.94274 2.3125,-1.21875 0.88799,-0.28799 1.86224,-0.43749 2.90625,-0.4375 z m 12.125,0 5.6875,0 c 1.05599,10e-6 2.01824,0.14951 2.90625,0.4375 0.88799,0.28801 1.67649,0.69076 2.3125,1.21875 0.64798,0.51601 1.13998,1.14301 1.5,1.875 0.35998,0.72001 0.53123,1.51101 0.53125,2.375 -2e-5,0.87601 -0.19052,1.71275 -0.5625,2.46875 -0.36002,0.744 -0.85202,1.3855 -1.5,1.9375 -0.63601,0.54 -1.39326,0.96925 -2.28125,1.28125 -0.88801,0.312 -1.86226,0.46875 -2.90625,0.46875 l -8.0625,0 0,-7.53125 3.75,0 0,4.4375 4.3125,0 c 0.51599,0 1.00549,-0.0867 1.4375,-0.21875 0.44399,-0.144 0.81299,-0.34175 1.125,-0.59375 0.31199,-0.252 0.53874,-0.55825 0.71875,-0.90625 0.17999,-0.36 0.28124,-0.75549 0.28125,-1.1875 -1e-5,-0.41999 -0.10126,-0.79624 -0.28125,-1.15625 -0.18001,-0.35999 -0.42601,-0.65424 -0.75,-0.90625 -0.32401,-0.26399 -0.69301,-0.48099 -1.125,-0.625 -0.43201,-0.15599 -0.90226,-0.21874 -1.40625,-0.21875 l -8.0625,0 2.375,-3.15625 z m -3.21875,15.03125 c 4.97056,0 9,4.02944 9,9 0,4.97056 -4.02944,9 -9,9 -4.97056,0 -9,-4.02944 -9,-9 0,-4.97056 4.02944,-9 9,-9 z m 6.46875,20.90625 c 0.37599,10e-6 0.68949,0.10526 0.9375,0.28125 0.25599,0.16801 0.48024,0.36901 0.65625,0.625 l 5.03125,7.28125 -9.34375,0 1.5,-2.0625 2,0 0.75,0 c 0.26399,0 0.49549,-0.016 0.6875,0 -0.11201,-0.144 -0.25426,-0.31525 -0.40625,-0.53125 -0.14401,-0.224 -0.27026,-0.433 -0.40625,-0.625 l -1.4375,-2.125 -3.78125,5.34375 -2.9375,0 5.15625,-7.28125 c 0.168,-0.23199 0.36899,-0.44099 0.625,-0.625 0.25599,-0.18399 0.57674,-0.28124 0.96875,-0.28125 z m -27.5,0.15625 9.125,0 -1.59375,2.0625 -2.875,0 0,5.96875 -2.46875,0 0,-5.96875 -3.78125,0 1.59375,-2.0625 z m 10.6875,0 5.15625,0 c 0.45599,10e-6 0.94949,0.037 1.4375,0.125 0.48799,0.08 0.91249,0.22151 1.3125,0.4375 0.39999,0.21601 0.74399,0.50701 1,0.875 0.26399,0.36801 0.37499,0.83026 0.375,1.40625 -1e-5,0.312 -0.029,0.62626 -0.125,0.90625 -0.096,0.28 -0.25351,0.526 -0.4375,0.75 -0.17601,0.224 -0.39226,0.4025 -0.65625,0.5625 -0.25601,0.152 -0.54701,0.27975 -0.875,0.34375 0.13599,0.104 0.30074,0.24625 0.46875,0.40625 0.16799,0.16 0.37624,0.37625 0.65625,0.65625 l 1.5,1.5625 -3.34375,0 -1.78125,-2.125 -3.8125,0 0,2.125 -2.5,0 0,-4.125 7,0 c 0.38399,0 0.70474,-0.0588 0.96875,-0.21875 0.26399,-0.15999 0.40624,-0.40749 0.40625,-0.6875 -1e-5,-0.312 -0.13501,-0.53549 -0.375,-0.6875 -0.24001,-0.15999 -0.56801,-0.24999 -1,-0.25 l -7,0 1.625,-2.0625 z m 20.8125,0 3.1875,0 1.9375,2.21875 c 0.064,0.072 0.146,0.16126 0.25,0.28125 0.10399,0.11201 0.20049,0.247 0.3125,0.375 0.11199,0.128 0.21649,0.23176 0.3125,0.34375 0.096,0.11201 0.17874,0.19401 0.21875,0.25 0.08,-0.11199 0.19174,-0.2455 0.34375,-0.4375 0.15199,-0.192 0.36824,-0.46049 0.65625,-0.8125 l 1.8125,-2.21875 3.125,0 -4.75,5.375 0,2.65625 -2.5,0 0,-2.6875 -4.90625,-5.34375 z"
         style="fill:#ffffff;stroke:none"
         inkscape:connector-curvature="0" />
    </g>
  </g>
</svg>
